<?xml version="1.0" encoding="UTF-8" standalone="no"?><!DOCTYPE svg PUBLIC "-//W3C//DTD SVG 1.1//EN" "http://www.w3.org/Graphics/SVG/1.1/DTD/svg11.dtd"><svg width="100%" height="100%" viewBox="0 0 32 32" version="1.1" xmlns="http://www.w3.org/2000/svg" xmlns:xlink="http://www.w3.org/1999/xlink" xml:space="preserve" xmlns:serif="http://www.serif.com/" style="fill-rule:evenodd;clip-rule:evenodd;stroke-linecap:round;stroke-linejoin:round;stroke-miterlimit:1.5;"><path d="M32,4.381l0,24.774l-32,0l0,-24.894l11.352,0.101l3.159,3.515l3.26,-0.027l3.2,-3.517l11.029,0.048Z" style="fill:#ebebeb;stroke:#eafcff;stroke-width:1px;"/><path d="M25.807,5.33l-4.589,0.017l-3.108,3.506l-15.544,-0c-1.137,-0 -2.072,0.791 -2.072,1.753l-0,15.774c-0,0.962 0.935,1.753 2.072,1.753l26.942,-0c1.137,-0 2.072,-0.791 2.072,-1.753l0,-19.28c0,-0.961 -0.935,-1.753 -2.072,-1.753l-3.701,-0.017Z" style="fill:#3b82f6;fill-rule:nonzero;stroke:#1e40af;stroke-width:0.96px;stroke-linecap:butt;stroke-linejoin:miter;stroke-miterlimit:4;"/><path d="M6.267,5.33l4.589,0.017l3.109,3.506l15.543,-0c1.137,-0 2.072,0.791 2.072,1.753l0,15.774c0,0.962 -0.935,1.753 -2.072,1.753l-26.942,-0c-1.137,-0 -2.072,-0.791 -2.072,-1.753l-0,-19.28c-0,-0.961 0.935,-1.753 2.072,-1.753l3.701,-0.017Z" style="fill:#3b82f6;fill-rule:nonzero;stroke:#1e40af;stroke-width:0.96px;stroke-linecap:butt;stroke-linejoin:miter;stroke-miterlimit:4;"/><g transform="matrix(0.665385,0,0,1,5.34326,0)"><g transform="matrix(15.5021,0,0,15.5021,39.2215,23.1009)"></g><text x="-7.285px" y="23.101px" style="font-family:'PTMono-Bold', 'PT Mono', monospace;font-weight:700;font-size:15.502px;fill:#fff;">S3PDM</text></g></svg>